<?xml version="1.0" encoding="UTF-8" standalone="no"?>
<!DOCTYPE svg PUBLIC "-//W3C//DTD SVG 1.1//EN" "http://www.w3.org/Graphics/SVG/1.1/DTD/svg11.dtd">
<svg version="1.1" xmlns="http://www.w3.org/2000/svg" xmlns:xlink="http://www.w3.org/1999/xlink" preserveAspectRatio="xMidYMid meet" viewBox="0 0 100 68" width="100" height="68"><defs><path d="M17.73 27.82L17.73 27.81L17.73 27.79L17.73 27.77L17.73 27.76L17.73 27.74L17.74 27.73L17.74 27.71L17.75 27.7L17.75 27.68L17.76 27.67L17.76 27.65L17.77 27.64L17.78 27.63L17.79 27.61L17.79 27.6L17.8 27.59L17.81 27.57L17.82 27.56L17.83 27.55L17.84 27.54L17.85 27.53L17.87 27.52L17.88 27.51L17.89 27.5L17.9 27.49L17.92 27.48L17.93 27.48L17.94 27.47L17.96 27.46L17.97 27.45L17.99 27.45L18 27.44L18.02 27.44L18.03 27.43L18.05 27.43L18.06 27.43L18.08 27.43L18.09 27.42L18.11 27.42L18.13 27.42L19.73 27.42L19.75 27.42L19.76 27.42L19.78 27.43L19.8 27.43L19.81 27.43L19.83 27.43L19.84 27.44L19.86 27.44L19.87 27.45L19.89 27.45L19.9 27.46L19.92 27.47L19.93 27.48L19.94 27.48L19.96 27.49L19.97 27.5L19.98 27.51L19.99 27.52L20 27.53L20.01 27.54L20.03 27.55L20.04 27.56L20.05 27.57L20.05 27.59L20.06 27.6L20.07 27.61L20.08 27.63L20.09 27.64L20.09 27.65L20.1 27.67L20.11 27.68L20.11 27.7L20.12 27.71L20.12 27.73L20.12 27.74L20.13 27.76L20.13 27.77L20.13 27.79L20.13 27.81L20.13 27.82L20.13 32.03L21.74 33.84L20.13 33.84L20.13 39.45L16.56 39.45L16.56 39.45L16.56 39.44L16.56 35.54L16.56 35.52L16.56 35.5L16.56 35.49L16.56 35.47L16.55 35.45L16.55 35.44L16.55 35.42L16.54 35.4L16.53 35.39L16.53 35.37L16.52 35.36L16.52 35.34L16.51 35.33L16.5 35.31L16.49 35.3L16.48 35.28L16.47 35.27L16.46 35.26L16.45 35.25L16.44 35.23L16.43 35.22L16.42 35.21L16.4 35.2L16.39 35.19L16.38 35.18L16.37 35.17L16.35 35.16L16.34 35.16L16.32 35.15L16.31 35.14L16.29 35.14L16.28 35.13L16.26 35.12L16.25 35.12L16.23 35.12L16.21 35.11L16.2 35.11L16.18 35.11L16.16 35.11L16.15 35.11L14.49 35.11L14.47 35.11L14.46 35.11L14.44 35.11L14.42 35.11L14.41 35.12L14.39 35.12L14.38 35.12L14.36 35.13L14.35 35.14L14.33 35.14L14.32 35.15L14.3 35.16L14.29 35.16L14.27 35.17L14.26 35.18L14.25 35.19L14.23 35.2L14.22 35.21L14.21 35.22L14.2 35.23L14.19 35.25L14.18 35.26L14.17 35.27L14.16 35.28L14.15 35.3L14.14 35.31L14.13 35.33L14.12 35.34L14.12 35.36L14.11 35.37L14.1 35.39L14.1 35.4L14.09 35.42L14.09 35.44L14.09 35.45L14.08 35.47L14.08 35.49L14.08 35.5L14.08 35.52L14.08 35.54L14.08 39.44L14.08 39.45L14.08 39.45L10.51 39.45L10.51 33.84L8.9 33.84L15.32 26.62L17.73 29.33L17.73 27.82Z" id="a1l4wjmwNP"></path><path d="M61.9 8.44L79.53 35.1L97.15 61.77L2.85 61.77L15.22 42.52L27.6 23.27L39.68 42.07L44.28 35.1L44.28 35.1L61.9 8.44Z" id="aBf3qeFIF"></path><path d="M60.24 54.01L67.02 61.64L63.23 65.92L56.44 58.28L49.66 65.92L45.86 61.64L52.64 54.01L45.86 46.38L49.66 42.1L56.44 49.74L63.23 42.1L67.02 46.38L60.24 54.01Z" id="d1A5sC3Qav"></path><path d="M41.24 49.14L49.3 51.85L47.91 55.96L39.86 53.24L41.24 49.14Z" id="e3KNqFYyu6"></path><path d="M32.76 46.86L38.82 48.99L37.66 52.29L31.6 50.16L32.76 46.86Z" id="a1uvosov6a"></path><path d="M18.71 37.9L21.74 41L20.05 42.64L17.03 39.54L18.71 37.9Z" id="b1TdgyU1YE"></path><path d="M26.88 43.96L30.86 45.86L29.35 49.02L25.36 47.11L26.88 43.96Z" id="e1bMnARMN0"></path><path d="M22.21 41.56L25.66 44.17L24.24 46.05L20.79 43.44L22.21 41.56Z" id="a61SkcCdyg"></path></defs><g><g><g><use xlink:href="#a1l4wjmwNP" opacity="1" fill="#1b52ba" fill-opacity="1"></use><g><use xlink:href="#a1l4wjmwNP" opacity="1" fill-opacity="0" stroke="#000000" stroke-width="0.5" stroke-opacity="1"></use></g></g><g><use xlink:href="#aBf3qeFIF" opacity="1" fill="#cfcdcd" fill-opacity="1"></use><g><use xlink:href="#aBf3qeFIF" opacity="1" fill-opacity="0" stroke="#000000" stroke-width="1" stroke-opacity="1"></use></g></g><g><use xlink:href="#d1A5sC3Qav" opacity="1" fill="#272ccf" fill-opacity="1"></use><g><use xlink:href="#d1A5sC3Qav" opacity="1" fill-opacity="0" stroke="#000000" stroke-width="0.5" stroke-opacity="1"></use></g></g><g><use xlink:href="#e3KNqFYyu6" opacity="1" fill="#000000" fill-opacity="1"></use></g><g><use xlink:href="#a1uvosov6a" opacity="1" fill="#000000" fill-opacity="1"></use></g><g><use xlink:href="#b1TdgyU1YE" opacity="1" fill="#000000" fill-opacity="1"></use></g><g><use xlink:href="#e1bMnARMN0" opacity="1" fill="#000000" fill-opacity="1"></use></g><g><use xlink:href="#a61SkcCdyg" opacity="1" fill="#000000" fill-opacity="1"></use></g></g></g></svg>